<svg width="539" height="50" viewBox="0 0 539 50" fill="none" xmlns="http://www.w3.org/2000/svg">
<path d="M10.1362 50L14.4425 31.5132L0 19.0789L19.08 17.4342L26.5 0L33.92 17.4342L53 19.0789L38.5575 31.5132L42.8638 50L26.5 40.1974L10.1362 50Z" fill="#3BE489"/>
<path d="M107.891 48.9652L111.929 31.6266L111.998 31.3318L111.769 31.1342L98.2265 19.4751L116.123 17.9324L116.422 17.9066L116.54 17.63L123.5 1.27679L130.46 17.63L130.578 17.9066L130.877 17.9324L148.774 19.4751L135.231 31.1342L135.002 31.3318L135.071 31.6266L139.109 48.9652L123.757 39.7684L123.5 39.6145L123.243 39.7684L107.891 48.9652Z" stroke="#3BE489"/>
<path d="M302.891 48.9652L306.929 31.6266L306.998 31.3318L306.769 31.1342L293.226 19.4751L311.123 17.9324L311.422 17.9066L311.54 17.63L318.5 1.27679L325.46 17.63L325.578 17.9066L325.877 17.9324L343.774 19.4751L330.231 31.1342L330.002 31.3318L330.071 31.6266L334.109 48.9652L318.757 39.7684L318.5 39.6145L318.243 39.7684L302.891 48.9652Z" stroke="#3BE489"/>
<path d="M496.891 48.9652L500.929 31.6266L500.998 31.3318L500.769 31.1342L487.226 19.4751L505.123 17.9324L505.422 17.9066L505.54 17.63L512.5 1.27679L519.46 17.63L519.578 17.9066L519.877 17.9324L537.774 19.4751L524.231 31.1342L524.002 31.3318L524.071 31.6266L528.109 48.9652L512.757 39.7684L512.5 39.6145L512.243 39.7684L496.891 48.9652Z" stroke="#3BE489"/>
<path d="M204.891 48.9652L208.929 31.6266L208.998 31.3318L208.769 31.1342L195.226 19.4751L213.123 17.9324L213.422 17.9066L213.54 17.63L220.5 1.27679L227.46 17.63L227.578 17.9066L227.877 17.9324L245.774 19.4751L232.231 31.1342L232.002 31.3318L232.071 31.6266L236.109 48.9652L220.757 39.7684L220.5 39.6145L220.243 39.7684L204.891 48.9652Z" stroke="#3BE489"/>
<path d="M399.891 48.9652L403.929 31.6266L403.998 31.3318L403.769 31.1342L390.226 19.4751L408.123 17.9324L408.422 17.9066L408.54 17.63L415.5 1.27679L422.46 17.63L422.578 17.9066L422.877 17.9324L440.774 19.4751L427.231 31.1342L427.002 31.3318L427.071 31.6266L431.109 48.9652L415.757 39.7684L415.5 39.6145L415.243 39.7684L399.891 48.9652Z" stroke="#3BE489"/>
<line x1="55" y1="30" x2="94" y2="30" stroke="white" stroke-width="2"/>
<line x1="156" y1="30" x2="195" y2="30" stroke="white" stroke-width="2"/>
<line x1="351" y1="30" x2="390" y2="30" stroke="white" stroke-width="2"/>
<line x1="253" y1="30" x2="292" y2="30" stroke="white" stroke-width="2"/>
<line x1="448" y1="30" x2="487" y2="30" stroke="white" stroke-width="2"/>
</svg>
