<svg width="42" height="53" viewBox="0 0 42 53" fill="none" xmlns="http://www.w3.org/2000/svg">
<path d="M21 53C14.9188 51.4542 9.898 47.9314 5.93775 42.4318C1.9775 36.9322 -0.00174884 30.8266 1.15945e-06 24.115V7.95L21 0L42 7.95V24.115C42 30.8283 40.0208 36.9348 36.0623 42.4345C32.1038 47.9341 27.083 51.4559 21 53ZM21 47.435C25.55 45.9775 29.3125 43.0625 32.2875 38.69C35.2625 34.3175 36.75 29.4592 36.75 24.115V11.5938L21 5.63125L5.25 11.5938V24.115C5.25 29.4592 6.7375 34.3175 9.7125 38.69C12.6875 43.0625 16.45 45.9775 21 47.435Z" fill="#3BE489"/>
<path d="M10.5025 41L13.265 29.1684L4 21.2105L16.24 20.1579L21 9L25.76 20.1579L38 21.2105L28.735 29.1684L31.4975 41L21 34.7263L10.5025 41Z" fill="#3BE489"/>
</svg>
