<svg width="634" height="50" viewBox="0 0 634 50" fill="none" xmlns="http://www.w3.org/2000/svg">
<path d="M105.891 48.9652L109.929 31.6266L109.998 31.3318L109.769 31.1342L96.2265 19.4751L114.123 17.9324L114.422 17.9066L114.54 17.63L121.5 1.27679L128.46 17.63L128.578 17.9066L128.877 17.9324L146.774 19.4751L133.231 31.1342L133.002 31.3318L133.071 31.6266L137.109 48.9652L121.757 39.7684L121.5 39.6145L121.243 39.7684L105.891 48.9652Z" stroke="#3BE489"/>
<path d="M300.891 48.9652L304.929 31.6266L304.998 31.3318L304.769 31.1342L291.226 19.4751L309.123 17.9324L309.422 17.9066L309.54 17.63L316.5 1.27679L323.46 17.63L323.578 17.9066L323.877 17.9324L341.774 19.4751L328.231 31.1342L328.002 31.3318L328.071 31.6266L332.109 48.9652L316.757 39.7684L316.5 39.6145L316.243 39.7684L300.891 48.9652Z" stroke="#3BE489"/>
<path d="M494.891 48.9652L498.929 31.6266L498.998 31.3318L498.769 31.1342L485.226 19.4751L503.123 17.9324L503.422 17.9066L503.54 17.63L510.5 1.27679L517.46 17.63L517.578 17.9066L517.877 17.9324L535.774 19.4751L522.231 31.1342L522.002 31.3318L522.071 31.6266L526.109 48.9652L510.757 39.7684L510.5 39.6145L510.243 39.7684L494.891 48.9652Z" stroke="#3BE489"/>
<path d="M202.891 48.9652L206.929 31.6266L206.998 31.3318L206.769 31.1342L193.226 19.4751L211.123 17.9324L211.422 17.9066L211.54 17.63L218.5 1.27679L225.46 17.63L225.578 17.9066L225.877 17.9324L243.774 19.4751L230.231 31.1342L230.002 31.3318L230.071 31.6266L234.109 48.9652L218.757 39.7684L218.5 39.6145L218.243 39.7684L202.891 48.9652Z" stroke="#3BE489"/>
<path d="M397.891 48.9652L401.929 31.6266L401.998 31.3318L401.769 31.1342L388.226 19.4751L406.123 17.9324L406.422 17.9066L406.54 17.63L413.5 1.27679L420.46 17.63L420.578 17.9066L420.877 17.9324L438.774 19.4751L425.231 31.1342L425.002 31.3318L425.071 31.6266L429.109 48.9652L413.757 39.7684L413.5 39.6145L413.243 39.7684L397.891 48.9652Z" stroke="#3BE489"/>
<path d="M591.891 48.9652L595.929 31.6266L595.998 31.3318L595.769 31.1342L582.226 19.4751L600.123 17.9324L600.422 17.9066L600.54 17.63L607.5 1.27679L614.46 17.63L614.578 17.9066L614.877 17.9324L632.774 19.4751L619.231 31.1342L619.002 31.3318L619.071 31.6266L623.109 48.9652L607.757 39.7684L607.5 39.6145L607.243 39.7684L591.891 48.9652Z" stroke="#3BE489"/>
<line x1="53" y1="30" x2="92" y2="30" stroke="white" stroke-width="2"/>
<line x1="154" y1="30" x2="193" y2="30" stroke="white" stroke-width="2"/>
<line x1="349" y1="30" x2="388" y2="30" stroke="white" stroke-width="2"/>
<line x1="543" y1="30" x2="582" y2="30" stroke="white" stroke-width="2"/>
<line x1="251" y1="30" x2="290" y2="30" stroke="white" stroke-width="2"/>
<line x1="446" y1="30" x2="485" y2="30" stroke="white" stroke-width="2"/>
<path d="M10.8907 48.9652L14.9295 31.6266L14.9981 31.3318L14.7687 31.1342L1.22645 19.4751L19.1229 17.9324L19.4224 17.9066L19.5401 17.63L26.5 1.27679L33.4599 17.63L33.5776 17.9066L33.8771 17.9324L51.7735 19.4751L38.2313 31.1342L38.0019 31.3318L38.0705 31.6266L42.1093 48.9652L26.7569 39.7684L26.5 39.6145L26.2431 39.7684L10.8907 48.9652Z" stroke="#3BE489"/>
</svg>
