<svg width="636" height="50" viewBox="0 0 636 50" fill="none" xmlns="http://www.w3.org/2000/svg">
<path d="M10.1362 50L14.4425 31.5132L0 19.0789L19.08 17.4342L26.5 0L33.92 17.4342L53 19.0789L38.5575 31.5132L42.8637 50L26.5 40.1974L10.1362 50Z" fill="#3BE489"/>
<path d="M108.136 50L112.443 31.5132L98 19.0789L117.08 17.4342L124.5 0L131.92 17.4342L151 19.0789L136.557 31.5132L140.864 50L124.5 40.1974L108.136 50Z" fill="#3BE489"/>
<path d="M593.891 48.9652L597.929 31.6266L597.998 31.3318L597.769 31.1342L584.226 19.4751L602.123 17.9324L602.422 17.9066L602.54 17.63L609.5 1.27679L616.46 17.63L616.578 17.9066L616.877 17.9324L634.774 19.4751L621.231 31.1342L621.002 31.3318L621.071 31.6266L625.109 48.9652L609.757 39.7684L609.5 39.6145L609.243 39.7684L593.891 48.9652Z" stroke="#3BE489"/>
<line x1="55" y1="30" x2="94" y2="30" stroke="white" stroke-width="2"/>
<line x1="156" y1="30" x2="195" y2="30" stroke="white" stroke-width="2"/>
<line x1="351" y1="30" x2="390" y2="30" stroke="white" stroke-width="2"/>
<line x1="545" y1="30" x2="584" y2="30" stroke="white" stroke-width="2"/>
<line x1="253" y1="30" x2="292" y2="30" stroke="white" stroke-width="2"/>
<line x1="448" y1="30" x2="487" y2="30" stroke="white" stroke-width="2"/>
<path d="M207.136 50L211.443 31.5132L197 19.0789L216.08 17.4342L223.5 0L230.92 17.4342L250 19.0789L235.557 31.5132L239.864 50L223.5 40.1974L207.136 50Z" fill="#3BE489"/>
<path d="M305.136 50L309.443 31.5132L295 19.0789L314.08 17.4342L321.5 0L328.92 17.4342L348 19.0789L333.557 31.5132L337.864 50L321.5 40.1974L305.136 50Z" fill="#3BE489"/>
<path d="M402.136 50L406.443 31.5132L392 19.0789L411.08 17.4342L418.5 0L425.92 17.4342L445 19.0789L430.557 31.5132L434.864 50L418.5 40.1974L402.136 50Z" fill="#3BE489"/>
<path d="M499.136 50L503.443 31.5132L489 19.0789L508.08 17.4342L515.5 0L522.92 17.4342L542 19.0789L527.557 31.5132L531.864 50L515.5 40.1974L499.136 50Z" fill="#3BE489"/>
</svg>
