<svg width="45" height="39" viewBox="0 0 45 39" fill="none" xmlns="http://www.w3.org/2000/svg">
<path d="M0.0419922 38.8749L22.5003 0.083252L44.9587 38.8749H0.0419922ZM7.08574 34.7916H37.9149L22.5003 8.24992L7.08574 34.7916ZM22.5003 32.7499C23.0788 32.7499 23.564 32.5539 23.956 32.1619C24.348 31.7699 24.5434 31.2854 24.542 30.7083C24.5406 30.1311 24.3446 29.6466 23.954 29.2546C23.5634 28.8626 23.0788 28.6666 22.5003 28.6666C21.9219 28.6666 21.4373 28.8626 21.0467 29.2546C20.656 29.6466 20.46 30.1311 20.4587 30.7083C20.4573 31.2854 20.6533 31.7706 21.0467 32.164C21.44 32.5573 21.9246 32.7526 22.5003 32.7499ZM20.4587 26.6249H24.542V16.4166H20.4587V26.6249Z" fill="#FF0000"/>
</svg>
